<?xml version="1.0" ?><!DOCTYPE svg  PUBLIC '-//W3C//DTD SVG 1.1//EN'  'http://www.w3.org/Graphics/SVG/1.1/DTD/svg11.dtd'><svg enable-background="new 0 0 512 512" height="512px" id="Calque_1" version="1.1" viewBox="0 0 512 512" width="512px" xml:space="preserve" xmlns="http://www.w3.org/2000/svg" xmlns:xlink="http://www.w3.org/1999/xlink"><g><g><path d="M188.64,421.646c-1.595,1.674-3.24,2.88-2.724,2.166c-3.063,3.596-3.437,3.363-3.352,4.311    c-1.884,2.39-4.513,4.318-2.292,1.679l-5.845,6.476l3.764-3.604c-0.288,0.717-1.791,2.156-3.306,3.625l-0.566,0.551l-0.14,0.137    l-0.07,0.068l-0.305,0.277l-0.3,0.242l-0.293,0.24l-0.143,0.119c-0.042,0.037-0.182,0.122-0.269,0.18    c-0.397,0.253-0.802,0.482-1.193,0.684c-0.398,0.209-0.689,0.269-1.016,0.396c-0.316,0.099-0.608,0.229-0.89,0.277    c-0.562,0.118-1.037,0.219-1.382,0.327c0,0,0.247-0.02,0.68-0.053c0.435-0.034,1.051-0.097,1.762-0.342    c0.362-0.116,0.717-0.199,1.203-0.469c0.23-0.119,0.463-0.249,0.697-0.389l0.349-0.216c0.114-0.072,0.252-0.162,0.279-0.191    c0.212-0.177,0.433-0.358,0.656-0.543l0.042-0.035l0.295-0.267l0.077-0.078l0.154-0.156l0.311-0.314    c1.656-1.678,3.313-3.354,3.313-3.354l-0.191,0.475c1.365-1.671,4.378-4.556,5.467-5.524c-0.092,0.232,0.126,0.244-1.037,1.433    c8.084-8.018,1.419-2.918,7.957-9.741C189.924,420.46,189.399,420.972,188.64,421.646z" fill="#202020"/><path d="M196.53,415.856l2.271-3.346l4.85-4.573c-0.132-0.239,3.15-3.821,0.663-1.661    c-0.425,0.483-1.268,1.438-2.01,2.146c0.125-0.927,6.065-6.466,4.274-5.487c-3.62,3.833-4.28,4.316-6.248,6.936    c-3.454,3.379-6.033,5.774-7.775,7.223c-0.953,1.075-0.85,1.464-2.089,2.801c0.28-0.29,0.538-0.557,0.859-0.89l0.742,0.464    c0.948-1.202,2.023-2.157,3.203-3.362l-4.811,6.221c2.343-1.214,7.431-6.965,9.831-8.896    C197.097,415.608,202.177,411.04,196.53,415.856z" fill="#202020"/><path d="M190.466,419.893c-0.035,0.036-0.093,0.096-0.134,0.138C190.373,419.989,190.431,419.929,190.466,419.893z    " fill="#202020"/><path d="M228.01,143.987c1.184,1.162,1.672,1.365,1.913,1.462l-13.214-13.191c0.255,0.572,3.861,4.571,1.226,2.124    c0.958,1.309,4.56,4.611,5.274,4.897l-1.199-0.715c3.352,2.732,4.821,5.418,2.655,3.618l0.26,0.253l9.617,7.234    C231.518,146.506,231.75,147.697,228.01,143.987z" fill="#202020"/><path d="M176.86,417.951c1.656-1.766,1.809-2.033,1.556-1.897C177.846,416.711,177.315,417.344,176.86,417.951z" fill="#202020"/><path d="M236.791,151.358l3.012,2.267C238.646,152.669,237.583,151.874,236.791,151.358z" fill="#202020"/><path d="M212.837,138.745c-0.025,0.015-0.071,0.003-0.028,0.1l1.375,0.995c-0.018-0.018-0.023-0.023-0.03-0.03    C213.672,139.42,213.238,139.069,212.837,138.745z" fill="#202020"/><path d="M298.099,209.865c0.292,0.275,0.544,0.511,0.893,0.84C298.673,210.393,298.378,210.118,298.099,209.865z" fill="#202020"/><path d="M174.939,105.11l6.229,5.511c-0.952-0.613,1.93,2.168,0.496,1.129c0.474,0.42,2.639,2.45,2.154,1.791    l-1.208-1.187c3.59,2.601,1.905,0.536,7.414,5.292c-2.893-3.479-4.558-4.608-6.471-6.07c-0.598-0.547-1.099-1.005-1.604-1.468    l-5.573-4.189L174.939,105.11z" fill="#202020"/><path d="M255.847,333.346l0.026-0.103C255.828,333.316,255.83,333.341,255.847,333.346z" fill="#202020"/><path d="M255.971,332.829l-0.098,0.415C256.11,332.85,257.241,331.566,255.971,332.829z" fill="#202020"/><path d="M235.501,150.709c0.172-0.012,0.623,0.215,1.29,0.649l-2.249-1.689    C234.81,149.96,235.164,150.344,235.501,150.709z" fill="#202020"/><path d="M229.941,147.31l-5.016-4.875l-2.08-1.566C224.835,142.664,227.115,144.811,229.941,147.31z" fill="#202020"/><path d="M290.579,201.764c10.319,10.167-3.099-1.934,1.468,2.912c2.912,2.776,4.191,3.503,6.052,5.189    c-8.36-7.888,2.012,0.191-6.328-7.856c1.665,0.665,6.454,5.364,9.099,8.279c2.665,3.629-3.103-2.396-4.288-2.637    c3.366,3.209,2.875,2.542,4.539,3.669c5.051,5.274,11.273,10.09,13.688,13.84c3.843,3.63,3.827,3.154,6.23,5.05    c0.943-0.088-5.287-5.829-6.267-7.62c0.244,0.331,0.717,0.977,0.481,0.887l-3.122-3.339c2.888,3.247-0.941,0.089-2.621-1.51    c-1.203-1.181-3.596-3.529-3.127-3.345l1.916,1.694c-2.161-2.486-5.503-4.75-7.678-7.483c-0.013-0.244,0.971,0.63,1.183,0.699    c-3.102-2.397-5.732-5.07-10.052-8.891l2.871,1.848c-3.822-2.69-11.033-10.223-15.844-15.631c0.48,0.653,1.44,1.735,0.729,1.221    c-3.123-2.879-5.039-5.496-3.38-4.375c-3.355-2.507-10.813-11.527-15.358-14.971l-20.968-15.77    c0.753,0.623,1.542,1.306,2.323,2.042c1.221,2.119,2.175,2.964-1.174,0.461c3.11,2.635,2.373,1.177,6.708,5.474    c-1.919-1.467-2.862-1.38,1.219,2.808c10.784,9.887,18.91,15.461,29.216,24.462c0.011,0.702,7.687,8.184,11.289,11.949    c-1.778-1.035-4.617-3.663-7.529-6.424c1.768,1.793,4.812,4.879,7.069,7.169L290.579,201.764z" fill="#202020"/><path d="M265.417,178.927c0.228,0.289,0.478,0.574,0.735,0.864C266.035,179.616,265.819,179.355,265.417,178.927z" fill="#202020"/><path d="M281.001,193.522c-0.049-0.022-0.046,0-0.073,0.002c0.307,0.289,0.613,0.578,0.927,0.874    C281.554,194.089,281.214,193.74,281.001,193.522z" fill="#202020"/><path d="M237.142,153.912c-0.711-0.514-1.193-0.941-1.906-1.455c0.405,0.353,0.911,0.793,1.398,1.218    C237.115,154.063,237.369,154.223,237.142,153.912z" fill="#202020"/><path d="M235.683,151.237l0.47,0.186c-0.252-0.276-0.429-0.469-0.652-0.713    C235.353,150.715,235.366,150.855,235.683,151.237z" fill="#202020"/><path d="M326.594,244.033l1.057,0.907C327.053,244.355,326.768,244.13,326.594,244.033z" fill="#202020"/><path d="M301.403,213.761c-3.596-3.528-0.942,0.09-5.984-4.947l1.447,1.511    c-3.836-3.395-10.09-9.851-14.404-14.129c0.691,0.279-2.354-2.855-1.533-2.672c-3.012-2.862-5.991-5.699-7.833-6.882    c-1.712-1.927-4.766-4.401-6.942-6.851c0.783,1.17-3.947-2.64,1.919,2.754c-0.48-0.428-0.24-0.099-0.716-0.521    c3.357,3.896,5.268,4.893,8.398,8.011c1.677,2.058-3.362-2.747-1.677-0.908c4.079,3.723,12.012,12.47,12.471,11.495    c2.889,2.788,3.123,3.338,3.838,4.316c5.255,3.726,16.338,16.993,17.273,15.975c-1.678-1.601-4.328-4.292-6.943-6.489    L301.403,213.761z" fill="#202020"/><path d="M243.175,159.844c0.216,0.222,0.504,0.518,0.684,0.703C243.656,160.339,243.405,160.08,243.175,159.844z" fill="#202020"/><path d="M201.053,112.06l2.128,0.851c8.635,8.33,11.522,11.576,18.964,18.967c0.479,0.654-0.476-0.19-0.96-0.619    c5.288,5.141,12.956,13.076,17.045,16.578c1.654,1.664,5.806,6.222,3.97,4.762c0.863,0.751,1.841,1.619,2.749,2.568    c0.017,0.475-2.144-2.012-2.385-1.878c0.721,0.751,0.963,1.083,1.205,1.18c-1.436-1.041,0.506,2.064-5.255-3.726    c-1.7-2.773,4.068,3.944,3.339,2.032c-1.912-1.92-1.918-1.468-2.154-1.56c-2.428-2.455-2.215-2.54-1.95-2.544    c-1.119-0.752-3.934-4.078-5.505-5.091c-4.793-4.701,0.703-0.186-2.405-3.28l-2.387-1.188l-5.042-5.269    c-7.674-7.252,0.032,2.104-8.838-6.088c1.434,0.808-1.462-3.139-5.308-7.234c2.397,2.353,7.179,6.354,10.068,9.598    c-3.854-4.792,6.007,5.894,4.3,3.113c-2.391-1.882-5.987-5.41-8.628-8.326l0.966,0.855c-2.891-3.018-5.754-4.627-9.592-8.944    c-2.045-2.007-1.497-1.796-1-1.581C202.575,113.613,200.926,112.198,201.053,112.06z M205.592,116.348l2.651,2.77    C207.699,118.376,206.685,117.369,205.592,116.348z" fill="#202020"/><path d="M234.36,377.87c-0.285,0.253-0.613,0.545-0.872,0.774C233.696,378.492,234.02,378.193,234.36,377.87z" fill="#202020"/><path d="M230.754,130.064l1.55,1.59C231.712,131.021,231.212,130.515,230.754,130.064z" fill="#202020"/><path d="M267.97,163.32l2.433,2.154C269.489,164.577,268.724,163.924,267.97,163.32z" fill="#202020"/><path d="M253.121,359.191l0.081-0.072c0.117-0.14,0.207-0.247,0.33-0.394L253.121,359.191z" fill="#202020"/><path d="M337.239,235.393c0.299,0.4,0.645,0.838,1.146,1.41C338.379,236.679,337.945,236.159,337.239,235.393z" fill="#202020"/><path d="M267.521,162.924c0.055,0.063,0.086,0.1,0.128,0.15c0.102,0.078,0.212,0.163,0.321,0.246L267.521,162.924z    " fill="#202020"/><path d="M216.981,112.795c-0.357-0.317-0.681-0.605-1.065-0.945C216.402,112.312,216.714,112.58,216.981,112.795z" fill="#202020"/><path d="M217.495,116.707c-0.377-0.347-0.741-0.673-1.036-0.917L217.495,116.707z" fill="#202020"/><path d="M161.177,88.931l2.2,2.027C162.327,89.929,161.674,89.343,161.177,88.931z" fill="#202020"/><path d="M212.293,110.721c-0.15-0.095-0.3-0.191-0.409-0.247C212.195,110.749,212.369,110.852,212.293,110.721z" fill="#202020"/><path d="M219.143,389.514c0.047-0.049,0.098-0.102,0.126-0.131l-0.016-0.123L219.143,389.514z" fill="#202020"/><path d="M214.876,395.526c-0.59,0.622-1.204,1.271-1.807,1.907C213.762,396.747,214.415,396.056,214.876,395.526z" fill="#202020"/><path d="M338.165,273.75c-0.646,0.474-2.063,1.683-1.549,0.971C335.67,275.917,336.045,276.149,338.165,273.75z" fill="#202020"/><path d="M225.695,375.46c-0.256,0.418-0.613,0.898-0.972,1.38C225.418,375.969,226.031,375.212,225.695,375.46z" fill="#202020"/><path d="M224.723,376.84c-0.341,0.432-0.705,0.894-1.011,1.281C224.076,377.679,224.417,377.247,224.723,376.84z" fill="#202020"/><path d="M344.738,256.139c0.093-0.113,0.12-0.295,0.114-0.545C344.714,255.677,344.744,255.868,344.738,256.139z" fill="#202020"/><path d="M211.472,398.838c-0.19,0.476-7.955,8.86-1.09,2.143c0.183,0.706-4.151,4.563-5.852,6.483    c1.419-1.211-0.369,0.939,0.189,0.699c0.844-0.952,1.784-2.147,3.3-3.6c0.885-0.479-1.229,1.911-3.064,3.594    c2.402-1.933-2.397,3.102,0.85,0.215c6.399-6.713,10.871-11.508,14.831-16.768c-3.63,3.844-7.678,8.157-10.921,11.044l0.904-1.674    c3.802-3.125,5.688-5.517,9.131-8.888l-7.858,7.449c-3.905,3.266-1.581,0.793,1.176-2.103    C212.369,398.123,211.717,398.729,211.472,398.838z" fill="#202020"/><path d="M213.254,390.305l-0.139,0.117c-0.099,0.126-0.229,0.273-0.284,0.361L213.254,390.305z" fill="#202020"/><path d="M168.571,80.757l0.803,0.512C168.76,80.785,168.545,80.662,168.571,80.757z" fill="#202020"/><path d="M219.683,387.602l-0.005,0.006C219.725,387.552,219.738,387.54,219.683,387.602z" fill="#202020"/><path d="M173.304,85.815c-0.033-0.013-0.067-0.025-0.12-0.054C173.254,85.808,173.265,85.797,173.304,85.815z" fill="#202020"/><path d="M185.971,81.894c-0.012-0.048-0.004-0.074-0.058-0.163C185.542,81.404,185.694,81.591,185.971,81.894z" fill="#202020"/><path d="M173.352,85.792c-0.012,0.012-0.013,0.034-0.048,0.023C173.329,85.815,173.37,85.831,173.352,85.792z" fill="#202020"/><path d="M254.307,163.921c0,0-0.185-0.318-0.517-0.777C253.6,163.027,253.712,163.221,254.307,163.921z" fill="#202020"/><path d="M239.175,147.65c-0.085-0.114-0.135-0.182-0.244-0.329L239.175,147.65z" fill="#202020"/><path d="M343.612,271.769c0.782-0.771,1.355-1.364,1.831-1.872C344.866,270.454,344.254,271.068,343.612,271.769z" fill="#202020"/><path d="M173.184,85.761c-0.205-0.124-0.48-0.315-0.917-0.648C172.746,85.482,173.013,85.664,173.184,85.761z" fill="#202020"/><path d="M280.19,185.917c-0.183-0.153-0.353-0.296-0.525-0.441l0.268,0.306L280.19,185.917z" fill="#202020"/><path d="M288.1,194.394c-0.323-0.236-0.497-0.319-0.693-0.437c3.084,2.764,8.283,8.311,9.329,8.538    c-1.003-0.982-5.907-6.368-4.791-5.73c-2.141-1.936-4.867-5.236-6.032-6.267c3.123,3.57,0.017,0.707-2.381-1.414    c-1.936-2.174,0.716,0.057-0.978-1.789l-4.801-4.708l4.088,4.195l-1.651-0.865c0.166,0.14,0.281,0.235,0.459,0.385    C287.839,193.126,280.668,187.473,288.1,194.394z" fill="#202020"/><path d="M287.406,193.958c-0.463-0.414-0.878-0.769-1.219-1.026C286.855,193.587,287.152,193.803,287.406,193.958z    " fill="#202020"/><path d="M315.384,223.233c0.378,0.342,0.787,0.712,1.303,1.178C316.442,224.189,315.872,223.675,315.384,223.233z" fill="#202020"/><path d="M219.397,137.289c-0.007-0.239-3.851-4.56-4.081-4.185c1.181,1.243,2.37,2.496,3.564,3.753    L219.397,137.289z" fill="#202020"/><path d="M305.771,301.897c0.463-0.445,0.923-0.898,1.374-1.359c0.08-0.114,0.158-0.226,0.219-0.313    C307.041,300.459,306.197,301.415,305.771,301.897z" fill="#202020"/><path d="M293.349,197.885c-0.795-0.702-1.176-0.988-1.404-1.12C292.453,197.225,292.94,197.634,293.349,197.885z" fill="#202020"/><path d="M304.794,301.434c-0.665,0.493-1.651,1.215-1.888,1.221c-1.188,1.182-1.861,2.173-3.011,3.436    C301.213,304.685,302.819,303.14,304.794,301.434z" fill="#202020"/><path d="M299.803,306.194c0.032-0.035,0.064-0.071,0.093-0.104L299.803,306.194z" fill="#202020"/><path d="M221.697,139.847c0.372,0.331,0.755,0.671,1.149,1.021l-0.646-0.484c0.908,0.97,1.812,1.934,2.716,2.9    c0.358,0.319,0.744,0.668,1.205,1.108c-0.192-0.171-0.366-0.28-0.486-0.334c0.292,0.317,0.579,0.626,0.865,0.935    c2.549,1.923,8.344,7.26,10.133,8.681c2.258,1.99,4.934,4.514,6.541,6.169c-1.505-1.518-3.574-3.461-3.145-2.686    c2.888,3.249,3.86,5.26,9.603,10.11l-3.113-3.099l7.656,6.311c2.168,2.726-3.821-3.15-5.033-3.877    c5.763,5.1,9.395,10.502,12.496,12.438c0.009,0.7,0.028,1.871,3.627,5.401c-2.176-2.964,2.39,1.883,0.702-0.646    c1.43,1.034,3.852,4.1,4.315,4.047l-0.477-0.19c5.539,6.632,8.388,7.768,11.273,10.089c7.427,7.146,10.55,10.716,16.551,16.601    c0.003,0.465,0.984,2.719,3.393,5.079c1.422,0.796,6.944,6.029,7.895,6.176c-4.096-4.43-3.823-3.151-6.469-5.609    c-1.704-2.545,0.223-0.608-2.427-3.761c2.178,2.505,10.799,10.361,12.969,13.32l-0.961-0.85    c3.854,4.333,3.645,6.106,11.064,12.326l3.5,3.008c-0.197-0.117-0.262-0.087-0.382-0.135c2.643,2.684,3.486,3.776,4.449,4.888    c0.242,0.279,0.485,0.553,0.778,0.866c0.315,0.336,0.67,0.699,1.1,1.122c0.862,0.848,2.013,1.92,3.817,3.545    c-0.557-0.502-0.313-0.17-0.87-0.672c0.709,0.804,1.452,1.582,2.23,2.354c-1.42,1.432-2.693,2.859-3.939,4.276    c-0.634,0.721-1.247,1.418-1.833,2.084c-0.54,0.603-1.054,1.177-1.536,1.715c-1.881,1.213,0.038-0.696,0.753-1.896    c-6.025,5.768-11.815,12.705-15.069,16.774l-3.998,3.605c2.116-2.393,4.52-5.5,3.629-5.014c-2.023,2.157-1.46,1.91-4.48,4.803    c0.29-0.719,1.331-2.158,2.452-3.817c-6.472,5.757-0.609,2.125-5.544,5.748c-1.925,1.917-2.729,3.345-2.68,3.813l-3.818,3.142    c-0.058,0.716-4.336,5.031-7.102,7.896c-0.202,0.485,2.617-1.916,3.558-3.11c0.048,0.469-2.826,3.585-4.758,5.507    c-1.395,0.016-12.513,12.713-11.048,9.622c-8.43,8.878-20.517,21.104-25.94,27.104c-2.074,1.692-5.922,5.521-3.946,2.897    c-6.968,6.963-9.853,11.263-16.956,17.988c-0.658,0.486,3.12-3.132,2.644-3.115c-4.243,4.795-8.514,7.93-15.342,15.126    c1.167-1.191,1.369-1.678,1.461-1.914c0.237-0.008-2.635,3.11-4.339,5.035c-1.079,0.96,1.275-1.44,0.616-0.956    c-13.88,13.21-23.262,24.467-36.765,37.908c3.856-3.839,4.854-5.749,4.708-5.978l-3.777,3.761c-1.224,1.681-4.055,4.51-6.25,7.047    c-0.376,0.205-1.62,1.264-0.553-0.019c-3.954,3.491-6.653,6.607-9.533,9.961c-0.722,0.837-1.456,1.688-2.217,2.569l-0.283,0.328    l-0.169,0.263c-0.116,0.171-0.25,0.33-0.307,0.536c-0.184,0.369-0.278,0.784-0.312,1.201c-0.03,0.421,0.01,0.855,0.141,1.269    c0.079,0.193,0.125,0.45,0.223,0.55c0.04,0.068,0.072,0.14,0.099,0.217l0.021,0.061l0.085,0.101l0.17,0.203l0.343,0.411    l0.043,0.053l0.005,0.006c-0.24-0.266-0.064-0.071-0.117-0.13l0.009,0.006l0.018,0.014l0.071,0.052l0.139,0.107l0.27,0.231    c0.108,0.05,0.214,0.104,0.32,0.161c0.226,0.156,0.388,0.159,0.553,0.246c0.039,0.053,0.254,0.075,0.457,0.096    c0.197,0.023,0.396,0.047,0.596,0.071c0,0-0.245-0.003-0.674-0.009c-0.091-0.005-0.261,0.007-0.32-0.014    c-0.062-0.019-0.128-0.034-0.203-0.048c-0.074-0.013-0.156-0.021-0.249-0.026c-0.105-0.042-0.216-0.086-0.332-0.133    c-0.253-0.063-0.48-0.222-0.732-0.387l-0.098-0.061l-0.05-0.029l-0.025-0.016l-0.006-0.004l-0.003-0.001    c-0.087-0.097,0.115,0.128,0.093,0.104l-0.014-0.015l-0.228-0.235c-0.152-0.158-0.308-0.32-0.466-0.484    c-0.277-0.391-0.667-1.11-0.756-1.874c-0.058-0.764,0.08-1.559,0.414-2.248c0.211-0.328,0.369-0.617,0.647-0.946    c0.272-0.322,0.529-0.626,0.767-0.906c0.949-1.122,1.582-1.87,1.582-1.87l-3.054,2.413l4.438-5.277    c-3.139,2.688-5.129,5.627-5.742,6.004c0.066-0.244,0.257-0.515,0.476-0.806c0.109-0.146,0.223-0.296,0.337-0.446    c0.111-0.124,0.222-0.248,0.328-0.367c0.424-0.479,0.766-0.899,0.695-1.017c-0.734,0.684-1.258,1.118-1.753,1.784    c-0.254,0.284-0.399,0.595-0.532,0.883c-0.133,0.287-0.266,0.546-0.31,0.827c-0.057,0.272-0.112,0.536-0.169,0.806    c-0.006,0.272-0.013,0.551-0.02,0.849c-0.027,0.294,0.05,0.605,0.096,0.946c0.028,0.346,0.146,0.704,0.286,1.104    c-0.487-1.007-0.67-2.367-0.272-3.746c0.196-0.68,0.509-1.385,0.999-1.989c0.113-0.149,0.242-0.332,0.35-0.455l0.321-0.363    c0.216-0.242,0.436-0.487,0.658-0.735c1.78-1.982,3.761-4.104,5.769-6.218c4.036-4.208,8.108-8.453,10.958-11.426    c0.861-0.971-0.614,0.954-0.705,1.188c2.352-2.399,3.998-3.605,6.865-6.718c1.56-2.154-1.635,1.198-3.14,2.641    c-0.056-0.462,0.701-1.188,2.303-2.868c0.702-0.011,9.132-8.888,11.669-10.581c8.66-8.878-2.296,0.509,6.414-7.902l2.952-2.162    c4.665-5.275,10.822-11.974,16.53-17.514l-1.172,1.197c-0.621,0.959,0.788-0.242,1.452-0.732    c4.419-4.081,7.759-8.38,10.729-10.559c4.427-5.268,12.198-13.659,17.523-19.418c2.016-0.975-6.788,7.671-8.768,10.303    l5.042-5.048c-3.111,3.126-4.145,4.556-5.718,6.721c4.518-4.324,5.516-6.234,9.576-10.558c-0.185,0.468,0.462-0.005,2.4-1.934    l0.203-0.896c0.064-0.007,0.304-0.194,0.923-0.77l7.246-7.669c-1.73,1.435-2.107,1.21-4.038,3.133    c0.89-0.486-0.705,1.188-2.639,3.11c1.464-1.915-2.07,1.689-2.216,1.462c3.874-3.855,8.577-8.651,11.017-11.28l1.142-0.505    c3.764-3.603,7.477-7.671,10.067-10.076l-0.618,0.957c4.517-4.322,8.663-8.879,12.897-12.492    c3.578-4.306,8.238-9.571,11.079-13.174c1.313-2.135,12.083-11.052,15.949-16.074c0.343-0.255-2.743,3.361-4.104,5.033    c3.02-2.893,4.859-5.754,6.219-6.248c-6.78,6.489,0.701-0.012-2.164,3.101c3.098-3.114,6.295-6.468,7.664-8.146    c-5.023,5.03,1.188-2.384-3.713,2.894c1.703-2.05,3.782-4.376,6.014-6.74c0.713-0.751,1.44-1.517,2.165-2.278    c0.528-0.537,1.074-1.061,1.651-1.584c-0.101-0.113-0.195-0.22-0.289-0.325c0.374,0,0.264-0.284-0.545-1.247    c-0.019-0.019-1.1-0.559-1.081-0.54c-0.498-0.548,0.096-0.114,0.621,0.239c0.516,0.344,0.963,0.607-0.199-0.652    c-0.424-0.307-0.624-0.429-1.475-1.227c-0.716-0.665-1.469-1.391-2.239-2.151c-1.524-1.537-3.152-3.177-4.701-4.738    c-3.092-3.125-5.914-5.882-7.339-6.451c-3.133-3.809,6.948,6.264,2.131,0.617c3.353,2.734,7.197,7.287,8.628,7.863    c-3.105-2.861-0.728-1.45-2.647-3.379l-3.591-3.063l0.72,0.752c-5.987-5.18-14.639-14.219-21.837-21.281    c-6.471-5.608-11.25-9.144-18.447-16.434c2.391,1.886-5.772-6.259-0.75-2.162c-3.129-3.575-6.702-6.62-6.954-6.5    c2.885,3.014,0.977,1.097,3.369,3.673c-1.903-1.451-5.758-5.326-7.198-7.062c0.72,0.752,0.483,0.429,0.717,0.52    c-3.369-3.673-1.913-1.462-4.553-3.913c-0.49-1.124-5.533-5.704-7.693-8.191l-3.821-2.918c2.148,1.555-3.121-3.337-3.378-4.142    c-2.625-2.207-5.02-3.865-8.62-7.625c1.675,1.365-3.133-3.581-2.896-3.946c-6.013-6.59-11.257-9.614-16.793-16.013    c0.256,0.115,1.659,1.121-0.01-0.699c-1.458-1.29-3.829-3.731-5.332-5.168l0.055,0.038c-0.032-0.025-0.052-0.041-0.085-0.068    c-0.736-0.704-1.226-1.119-1.317-1.064c-2.811-2.221-4.41-3.217-9.612-7.919c0.018,0.709,4.333,4.755,6.254,6.455l1.905,1.224    c0.975,2.016,4.557,4.375,5.52,5.689c-3.581-2.36-11.986-11.065-17.494-15.823c2.648,3.61,9.381,10.493,15.378,16.374    l-2.409-2.823l3.114,3.102l-2.641-3.375c2.879,3.008,5.518,5.459,8.158,8.14c-3.122-3.108-3.859-4.797-2.172-2.959    c3.133,3.81,3.838,3.396,6.471,6.071c-1.446-1.509-3.361-3.436-1.925-2.395c4.817,5.646,6.5,6.789,10.816,11.99    c-0.015-1.165,6.002,5.888,7.186,6.129l-2.16-2.256l5.031,4.335c3.853,4.79-4.304-3.349,1.94,3.559    c6.01,6.126,6.458,5.365,11.273,10.09c-1.913-1.231-5.988-4.722-9.828-8.581l2.167,2.495c-1.43-1.036-6.713-6.401-9.35-9.079    c4.782,4-1.935-2.175-3.626-4.479c-0.697-0.037,2.174,2.73-1.419-0.334c3.125,3.112,3.608,3.541,7.451,7.632    c-8.425-8.725-8.855-6.566-16.063-14.328c3.599,3.301-0.727-1.679-0.982-2.254c-1.663-1.583-5.035-4.798-6.471-6.07l0.75,1.703    c-4.566-4.155-5.072-6.678-10.596-11.22c-0.939-0.369,4.33,4.523,3.37,3.673c-7.185-6.586-8.898-9.834-14.654-16.307    c-0.489-0.203-0.719,0.17-3.11-1.716c0.958,0.386-0.478-1.343,2.137,0.854c-1.923-2.165-4.555-4.376-6.469-6.069    c4.087,4.423-2.152-1.33-3.107-1.943c-2.156-2.252,0.957,0.387,2.396,1.66c-1.693-1.846-3.375-4.371-4.808-4.947    c0.231-0.371,5.739,4.155,9.098,7.357l-2.163-2.26c1.678,1.37,1.919,1.698,4.068,3.94c-1.916-2.382-1.446-2.428-0.731-2.142    c0.238,0.326-0.229-0.085-0.002,0.227c1.691,1.845,3.129,3.119,2.879,2.548c1.994,1.185-2.199-2.705-3.195-4.104    c-0.932-0.878-1.864-1.756-2.778-2.617l-10.483-7.885c-4.075-3.773-5.529-5.848-8.28-8.991l-1.156-0.462    c-3.378-3.45-6.491-6.782-3.862-5.034c0.007,0.239,0.485,0.663,1.21,1.42c0.145,0.051,0.35,0.188,0.593,0.377    c0.092,0.05,0.151,0.07,0.23,0.108c-3.774-3.539-6.131-5.748-6.348-5.952c6.713,5.705,0.94-0.32,2.596,0.103    c0,0-1.618-1.517-3.236-3.035c-0.405-0.379-0.809-0.759-1.188-1.114c-0.189-0.178-0.373-0.35-0.547-0.513    c-0.253-0.285-0.492-0.555-0.713-0.804c-0.068-0.079-0.134-0.153-0.196-0.225c-0.02-0.016-0.082-0.105-0.139-0.191    c-0.055-0.083-0.108-0.164-0.16-0.242c-0.205-0.316-0.371-0.603-0.501-0.841c-0.263-0.481-0.381-0.759-0.368-0.745    c0.257,0.656,0.598,1.274,0.889,1.759c0.063,0.104,0.173,0.284,0.194,0.309c0.034,0.048,0.067,0.095,0.099,0.14    c0.063,0.09,0.12,0.172,0.172,0.248c0.102,0.153,0.184,0.277,0.249,0.375l0.023,0.037l0.002,0.004l0.288,0.319l0.006,0.008    l0.012,0.016l0.042,0.058c0.025,0.037,0.045,0.066,0.062,0.091c0.063,0.101,0.047,0.122-0.027,0.083    c-0.037-0.02-0.089-0.055-0.152-0.103l-0.05-0.038l-0.003-0.002l-0.299-0.33l-0.006-0.006l-0.012-0.012l-0.025-0.024    c-0.034-0.034-0.071-0.071-0.111-0.11c-0.161-0.164-0.341-0.347-0.567-0.6c-0.417-0.577-0.847-1.284-1.181-1.997    c-0.224-0.604-0.436-1.23-0.576-1.817c-0.098-0.595-0.162-1.153-0.202-1.608c0.042-0.127,0.119-0.432,0.186-0.877    c0.08-0.445,0.131-1.034,0.361-1.701c0.101-0.335,0.217-0.696,0.349-1.072c0.167-0.362,0.36-0.741,0.57-1.13    c0.197-0.4,0.458-0.772,0.758-1.139c0.149-0.183,0.3-0.369,0.454-0.558l0.238-0.278l0.03-0.035l0.351-0.317l0.037-0.032    l0.075-0.064c0.2-0.172,0.403-0.348,0.608-0.525c0.419-0.309,1.045-0.692,1.602-0.977l0.434-0.213l0.368-0.13l0.744-0.239    c0.496-0.169,1.001-0.247,1.508-0.297c1.007-0.152,1.997-0.034,2.897,0.107c0.89,0.226,1.712,0.463,2.357,0.848l-0.435-0.106    c0.597,0.333,1.277,0.661,1.863,1.194c0.299,0.248,0.624,0.53,0.904,0.792c0.154,0.161,0.312,0.327,0.474,0.496    c0.657,0.665,1.368,1.386,2.096,2.123c1.47,1.459,3.029,2.955,4.345,4.177c0-0.232,3.824,2.459,5.73,3.683    c-4.228-4.487-1.503-2.04-1.638-2.604c0.432,0.47,1.238,1.285,1.377,1.335c0.722,0.525-0.715-0.978-0.724-1.215    c-2.396-2.235-4.797-4.533-6.896-6.447c-1.049-0.957-2.023-1.818-2.882-2.528c-0.264-0.214-0.517-0.42-0.758-0.615    c-0.447-0.357-0.89-0.674-1.314-0.951c-0.864-0.526-1.723-0.842-2.42-1.058c0.973,0.529,1.895,0.997,2.642,1.63    c0.371,0.288,0.803,0.641,1.089,0.888l0.51,0.427c0.688,0.565,1.407,1.143,2.13,2.012c-0.655-0.493-1.328-1.051-2.028-1.672    c-0.174-0.156-0.351-0.315-0.53-0.477l-0.321-0.291c-0.203-0.169-0.407-0.34-0.613-0.512c-0.812-0.707-1.799-1.236-2.848-1.708    c-2.136-0.838-4.668-1.056-7.159-0.307c-0.312,0.093-0.623,0.194-0.932,0.302c-0.377,0.167-0.76,0.359-1.133,0.567    c-0.374,0.209-0.742,0.437-1.095,0.679c-0.11,0.074-0.145,0.102-0.167,0.121l-0.092,0.075l-0.187,0.151l-0.376,0.305l-0.048,0.038    l-0.023,0.02l-0.443,0.401l-0.022,0.024l-0.175,0.195l-0.345,0.4c-0.457,0.543-0.904,1.103-1.232,1.765    c0,0-0.134,0.202-0.336,0.506c-0.206,0.305-0.454,0.724-0.636,1.18c-0.198,0.449-0.378,0.914-0.504,1.265    c-0.117,0.353-0.16,0.598-0.16,0.598s-0.018,0.189-0.049,0.521c-0.017,0.333-0.079,0.808-0.042,1.374    c0.044,0.566,0.11,1.232,0.242,1.925c0.193,0.702,0.382,1.381,0.713,2.151c0.209,0.435,0.443,0.864,0.693,1.272    c0.125,0.204,0.253,0.402,0.384,0.594l0.198,0.282c0.079,0.111,0.068,0.083,0.106,0.131c0.213,0.24,0.412,0.464,0.583,0.656    c0.146,0.162,0.291,0.322,0.434,0.479l0.034,0.032l0.066,0.061c0.043,0.04,0.084,0.077,0.122,0.113    c0.077,0.071,0.144,0.132,0.199,0.183c0.11,0.102,0.173,0.16,0.173,0.16c-0.221-0.183-0.404-0.323-0.563-0.436l-0.059-0.041    l-0.028-0.02l-0.002-0.001l-0.408-0.451l-0.003-0.002l-0.006-0.005l-0.013-0.011l-0.1-0.082c-0.065-0.05-0.126-0.097-0.184-0.141    c-0.119-0.084-0.226-0.16-0.338-0.239c-0.056-0.04-0.112-0.081-0.173-0.124c-0.078-0.072-0.257-0.302-0.39-0.475    c-0.291-0.383-0.615-0.855-0.958-1.479c-0.081-0.156-0.166-0.32-0.255-0.492c-0.056-0.142-0.115-0.29-0.178-0.446    c-0.12-0.315-0.243-0.668-0.364-1.064c-0.409-1.553-0.846-3.979,0.372-7.15c-0.204,0.365-0.686,1.35-0.877,2.804    c-0.086,0.731-0.178,1.567-0.063,2.479c0.045,0.456,0.096,0.932,0.191,1.413c0.121,0.478,0.264,0.97,0.431,1.465    c0.197,0.829,1.261,2.633,1.809,3.297l0.472,0.544l0.571,0.636l0.132,0.125l0.263,0.252c0.701,0.673,1.391,1.355,1.99,2    l1.657,0.888c-0.704-0.276,4.579,5.09,0.503,1.6c0,0-1.617-1.46-3.235-2.92c-0.404-0.365-0.809-0.73-1.188-1.072    c-0.095-0.085-0.188-0.169-0.279-0.252l-0.135-0.122l-0.066-0.06l-0.033-0.03l-0.008-0.007l-0.498-0.549l-0.015-0.017    c-0.157-0.173-0.306-0.337-0.443-0.489c-0.069-0.076-0.134-0.148-0.197-0.217l-0.023-0.026l-0.062-0.084l-0.125-0.173    c-0.081-0.116-0.159-0.229-0.234-0.339c-0.298-0.444-0.537-0.851-0.722-1.19c-0.374-0.686-0.533-1.08-0.516-1.052    c-0.02-0.031,0.136,0.421,0.453,1.099c0.158,0.336,0.356,0.726,0.588,1.13c0.174,0.286,0.36,0.592,0.545,0.897    c0.155,0.264,0.311,0.527,0.427,0.725l0.524,0.582l0.006,0.009l0.012,0.017l0.024,0.032l0.044,0.06    c0.027,0.038,0.052,0.07,0.071,0.097c0.04,0.054,0.062,0.085,0.062,0.085s-0.082-0.08-0.227-0.22l-0.028-0.027    c-0.179-0.198-0.362-0.4-0.55-0.608l-0.056-0.067c-0.039-0.046-0.081-0.096-0.126-0.15c-0.09-0.107-0.192-0.229-0.303-0.36    l-0.085-0.101l-0.044-0.052c-0.01-0.011-0.027-0.032-0.083-0.111c-0.18-0.25-0.361-0.518-0.538-0.799    c-0.355-0.563-0.695-1.188-0.994-1.842c-0.234-0.569-0.384-1.073-0.552-1.644c-0.073-0.28-0.147-0.563-0.221-0.846    c-0.047-0.287-0.087-0.578-0.122-0.87c-0.37-2.341,0.159-4.707,0.774-6.361c0.354-0.812,0.711-1.47,0.968-1.919    c0.249-0.458,0.441-0.679,0.442-0.679c0,0-0.038,0.058-0.104,0.16c-0.069,0.099-0.155,0.25-0.247,0.439    c-0.189,0.374-0.429,0.882-0.641,1.395c-0.229,0.507-0.374,1.037-0.468,1.44c-0.093,0.402-0.154,0.669-0.154,0.669    c0.12-0.45,0.253-0.885,0.395-1.301c0.151-0.412,0.351-0.796,0.536-1.173c0.19-0.375,0.387-0.733,0.587-1.075    c0.208-0.333,0.448-0.631,0.675-0.927c0.23-0.293,0.462-0.571,0.693-0.835l0.173-0.195l0.086-0.095l0.021-0.024l0.011-0.012    l0.574-0.519l0.02-0.016l0.154-0.128c0.203-0.167,0.393-0.323,0.572-0.47c1.016-0.754,2.554-1.577,3.337-1.789    c0.857-0.261,1.607-0.482,2.271-0.542c1.335-0.147,2.273-0.109,3.004,0.035c0.731,0.132,1.259,0.235,1.765,0.447    c0.508,0.194,1.013,0.4,1.678,0.685c0.635,0.343,1.486,0.746,2.515,1.509c0.253,0.198,0.521,0.417,0.804,0.658    c0.14,0.122,0.284,0.249,0.434,0.38l0.225,0.204l0.104,0.104c0.256,0.25,0.548,0.535,0.883,0.861    c0.676,0.645,1.538,1.439,2.647,2.434c3.1,2.167,5.982,4.949,11.025,10.219c-3.836-3.627-0.712-0.054-2.386-1.188    c3.612,4.001,5.281,4.901,7.438,6.694c0.723,1.215,1.211,2.106-2.153-1.33c-0.942,0.09,4.562,4.384,4.341,5.225    c11.28,11.249,10.741,7.311,23.245,21.142l-0.708-0.279c8.627,8.094,13.196,13.174,21.107,20.748l5.551,6.641    c-1.447-1.28-5.52-4.538-4.071-2.564c-2.415-3.517-5.754-6.471-8.654-9.961c-0.469-0.183,0.729,1.221,1.207,1.876    c-1.923-1.933-2.644-3.147-5.286-5.599c0.009,0.237,2.651,3.151,0.49,1.125l-3.125-3.803c-4.797-4.473-3.095-1.471-8.383-7.071    c1.314,0.71,3.819,2.339,6,4.375c-2.422-2.553,3.5,3.133,1.41,0.682c-4.032-3.136-5.407-5.221-10.453-9.705    c0.622,0.497,0.858,0.557,2.058,1.702l-6.725-7.104c1.449,1.973-6-5.423-5.746-4.391c7.207,7.53,5.277,5.129,13.453,13.748    c-2.465-2.289-5.927-4.958-7.728-6.029c-0.058-0.088-0.167-0.222-0.418-0.487c-1.668-0.897-0.464,0.514-1.163,1.163    c4.312,3.354,6.48,6.311,11.277,10.556c1.219,0.481-2.153-3.094-4.495-5.246l4.228,3.738l-0.954-0.614l9.986,10.233    c-1.936-1.896-2.8-2.332-3.961-3.171c1.29,1.319,2.484,2.708,3.751,4.189c0.063-0.641,0.494-0.708,1.76,0.571    c6.42,6.588,9.72,10.52,11.718,13.323c0.258,0.241,0.548,0.514,0.782,0.732c-0.729-1.451,5.268,3.97,7.652,5.617    c-0.473,0.273,3.128,3.576,4.813,5.641c1.426,0.57,0.686-1.353-1.247-3.985c-4.79-4.006-2.859-2.069-5.493-3.592l-7.425-6.685    l1.919,1.235c-3.371-3.672-7.204-6.603-6.501-6.789c2.156,1.564,5.049,4.816,7.192,6.365l-2.167-2.492    c4.546,3.672,1.686,2.527,6.966,7.198c-1.453-2.208,0.478,0.424,2.862,2.302c-1.448-1.974-8.868-8.653-6.731-7.8    c2.868,2.307,7.953,9.458,12.015,12.243l-0.241-0.095c4.968,5.133,7.109,6.541,9.23,8.201c1.941,2.357,5.201,5.031,7.554,7.337    l-0.244,0.129l3.364,3.208c-1.905-1.224-3.842-3.86-6.714-6.633l0.004,0.698c-2.842-3.666-5.639-5.21-8.461-7.435    c3.974,3.373,10.286,10.456,11.827,10.641l1.922,2.622l1.214,0.961c1.43,1.956-0.712,0.64-4.072-2.564    c-0.483-0.658-0.725-0.986-0.479-0.886c-1.679-1.368-3.347-2.498-6.954-6.265l2.151,1.784c-4.565-4.615-8.873-8.655-10.786-9.885    c6.482,6.772,12.969,13.319,19.208,19.526c2.619,1.051,5.236,2.789,6.901,2.996c4.31,4.041,10.078,9.609,13.438,13.502    l-0.478-0.189c1.695,1.844,3.365,3.435,4.808,4.712c1.679,2.061-1.665-0.894-0.466,0.512l6.226,5.736    c-0.699-0.039-5.733-5.07-8.146-7.436c0.479,0.423,1.444,1.279,1.196,0.942c-2.645-2.916-8.385-7.533-9.122-9.225    c-1.438-1.271,3.104,2.399-1.457-2.21c-2.891-3.25-4.318-3.822-4.782-4c-0.237,0.137,4.563,5.075,2.647,3.61    c2.413,2.366,3.605,3.077,6.481,6.313c-2.391-2.345-5.986-5.183-6.958-6.735c-5.031-4.334-5.236-2.786-3.077-0.529    c-0.25-0.801,8.882,8.204,3.1,1.705c3.112,2.405,8.154,7.442,11.983,10.83l-0.234-0.093l4.568,4.392    c-0.729-0.533-2.167-1.804-2.397-1.663l6.706,5.704c-3.829-3.156,1.932,2.399,3.372,4.137c0.951,0.379,3.584,2.593,1.422,0.104    c-2.407-2.822-1.677-1.367-4.076-3.722l3.817,2.915l0.244,0.333l2.396,1.657c4.56,4.611-2.86-1.146,3.376,4.369l-0.262-1.267    c6.728,6.876,14.897,16.177,19.936,20.751c-1.611-1.04-2.656-1.165-1.105,0.931c-1.986-2.159-6.169-6.306-9.188-9.231    c-0.483-0.661,4.309,3.12,7.429,6.457c-0.741-2.388-8.619-7.625-8.165-8.839c-7.936-8.519-6.94-5.333-13.435-12.807    c-0.469,0.276-2.167-1.803-2.863-1.842c1.46,2.675,9.357,9.315,13.676,14.06c-0.471-0.417-1.419-1.254-1.664-1.358    c3.131,3.349,4.552,4.604,6.953,6.729l-0.241-0.329c4.318,3.59,2.169,2.725,4.332,5.216c0.957,0.847,4.086,4.19,3.839,3.396    l3.86,4.568l0.213-0.619c2.401,2.353,2.646,3.148,5.055,5.049l0.472-0.272l-5.774-6.033c3.114,2.87,1.191,0.477,4.557,3.687    c-2.04-1.633-1.441-0.932-0.332,0.266c0.555,0.599,1.238,1.322,1.783,1.939c0.272,0.309,0.511,0.591,0.682,0.818    c0.087,0.116,0.149,0.208,0.205,0.302c0.082,0.126,0.132,0.222,0.145,0.28c0,0,0.981,0.968,1.964,1.936    c0.499,0.494,0.998,0.988,1.372,1.358c0.348,0.386,0.481,0.688,0.497,0.681c0,0-0.207-0.277-0.413-0.554    c-0.271-0.246-0.541-0.492-0.541-0.492c0.163,0.209,0.334,0.4,0.473,0.592c0.109,0.204,0.214,0.398,0.313,0.583    c0.196,0.373,0.418,0.69,0.528,1.041c0.142,0.336,0.273,0.651,0.402,0.958c0.113,0.313,0.186,0.632,0.285,0.95    c0.226,0.631,0.286,1.324,0.376,2.147c-0.013,0.413-0.037,0.863-0.081,1.36c-0.07,0.493-0.221,1.022-0.359,1.617    c0.948-2.739,0.792-5.376-0.285-7.759c-0.49-1.207-1.593-2.228-2.644-3.411c-0.523-0.566-1.144-1.236-1.682-1.781    c-0.388-0.353-0.804-0.718-1.253-1.102c0.327,0.279,0.693,0.593,1.088,0.93c0.111,0.103,0.167,0.132,0.329,0.298    c0.157,0.16,0.317,0.323,0.479,0.487c0.325,0.332,0.657,0.671,0.995,1.018c0.682,0.702,1.386,1.428,2.093,2.157    c0.591,0.785,1.076,1.624,1.404,2.527c0.68,1.788,0.889,3.665,0.684,5.186c-0.153,0.744-0.234,1.438-0.44,1.98    c-0.202,0.542-0.334,1.005-0.492,1.309c-0.542,1.362-1.665,2.387-2.568,3.424c-0.888,0.966-2.006,2.195-2.407,2.496    c-1.116,1.003-2.237,1.961-3.448,3.131c2.21-2.359,1.527-2.242,1.471-2.646c-0.028-0.201,0.1-0.533,0.823-1.371    c0.495-0.549,1.163-1.29,2.07-2.297c0.537-0.58,1.146-1.237,1.834-1.981c0.299-0.392,0.536-0.842,0.834-1.3    c0.21-0.5,0.466-1.021,0.646-1.602c0.021,0.369-0.583,1.852-1.018,2.312c0.509-0.475,1.089-1.418,1.404-2.692    c0.385-1.256,0.404-2.861-0.019-4.396c-0.168-0.783-0.529-1.509-0.862-2.228c-0.446-0.659-0.836-1.325-1.461-1.845    c-1.11-1.071-2.127-2.052-2.915-2.813c0.229,0.535-0.428-0.001-0.464,0.116c-0.155-0.034,0.336,0.618,2.695,3.317    c-0.346-0.462-0.218-0.447,0.255-0.061c0.115,0.097,0.263,0.213,0.411,0.359c0.121,0.16,0.259,0.34,0.411,0.54    c0.144,0.206,0.325,0.419,0.471,0.677c0.129,0.268,0.267,0.555,0.412,0.857c0.512,1.232,0.902,2.9,0.608,4.639    c-0.286,1.737-1.047,3.437-2.419,4.666c0,0,0.024-0.323,0.048-0.646c0.033-0.311,0.007-0.623-0.005-0.629    c0.034,0.016-0.394,0.459-1.026,1.125c-0.622,0.652-1.451,1.522-2.279,2.393c-1.236,1.202-2.473,2.403-2.473,2.403l0.429-0.483    c-2.212,1.456-5.129,5.274-8.708,8.409c-2.215,2.633-11.68,11.766-7.065,8.378c-3.38,2.646-5.558,5.759-8.767,9.125l4.338-3.859    c-4.426,5.265-3.302,3.599-6.512,8.144c-0.552,0.231-1.548,0.964-0.93,0.008c-6.54,6.479-16.003,15.61-19.342,19.909    c-4.614,4.563-6.024,4.592-12.191,11.302c-1.274,1.438,1.604-0.509-2.827,3.585c-0.33,0.243,3.67-4.538-1.031,0.255    c-2.93,3.832-8.189,7.691-12.196,12.481c-2.484,2.159-6.452,6.25-5.97,5.054c3.759-3.597,8.89-8.877,9.512-9.841    c-0.293,0.723,2.824-2.408,0.279,0.469c5.83-5.29,3.388-3.83,8.561-8.634c0.201-0.486-2.96,2.17-3.901,3.366    c-0.51-0.464,9.6-10.07,4.582-6.221c-5.372,5.288-5.938,7.887-11.071,11.992c1.556-2.148,4.702-4.793,6.543-7.657l-3.992,3.6    l-2.402,3.107l0.092-0.235c-7.15,6.258-5.699,6.703-11.453,12.946c3.813-3.137,0.041,1.648,2.863-0.759    c-3.949,4.073-6.96,6.954-7.475,6.493c7.106-7.901-0.09-0.941,6.361-8.365c-1.313,0.965,0.938-2.365-3.249,1.716    c-4.311,5.006,1.799-0.987-2.686,3.819c-0.318,0.23-0.647,0.472-0.556,0.238c-1.883,2.39-2.584,2.401-4.89,5.268l0.515-0.711    c-3.484,2.892-3.152,3.822-6.219,6.244c1.459-0.735-1.546,2.14-3.022,4.067c2.918-2.646,4.944-3.632,10.404-9.148    c0.376-0.949-0.183-0.707,1.933-3.101l-3.533,3.603c0.723-0.816,1.235-1.477,1.883-2.239l3.576-3.278    c-4.14,4.549-1.842,2.862-3.391,5.006c-4.101,3.851-3.202,3.359-5.795,5.767c-0.168-0.671-8.384,6.948-13.231,11.257    c0.717-0.706,1.641-1.616,2.141-2.107c3.06-3.591-2.638,1.938-2.876,1.945l-2.214,2.634c0.427-0.485,0.96-1.215-0.133-0.24    c-3.203,3.358-2.596,3.584-5.792,6.938c-0.478,0.015,1.941-3.105-0.217-1.19c-0.904,0.501-3.677,2.2-7.824,6.757    c-0.22,0.396-1.298,1.574-2.568,2.92c0.169-0.194,0.388-0.431,0.454-0.529l-3.142,2.639c2.068-2.857,5.167-4.795,7.246-7.666    l-0.165-0.586c1.925-1.928,4.379-4.705,5.388-6.103c-3,2.873-3.521,3.59-6.727,6.952c-0.697,0.223,1.44-2.267,1.748-2.625    l-0.276,0.703c4.228-3.606,5.497-6.215,10.441-11.021c0.751-0.721,0.33-0.244,0.237-0.009c3.583-4.311,7.954-7.686,11.312-12.001    l-1.054,1.448c2.431-2.791,7.187-8.252,11.938-13.708l-0.105-0.188c-0.654,0.479,1.267-1.432,2.354-2.4l-0.003,0.008    c2.39-2.729,4.687-5.352,6.565-7.496c-0.733,0.554-1.633,1.301-2.598,2.225c-0.629,0.972-5.459,5.521-4.427,5.268    c-2.402,1.932-5.556,5.76-7.295,7.203c3.15-2.648-1.651,2.387-1.944,3.109c-1.221,0.729-4.278,4.314-4.229,3.604    c-0.658,0.486,1.643-1.204,2.679-2.635c2.729-3.345-5.831,5.288-2.341,1.213c-4.579,5.043-11.021,11.282-15.679,16.55l2.913-2.643    c-2.254,2.157-7.402,7.452-7.952,7.683c1.601-1.678,3.521-3.589,5.552-5.753c-0.271-0.475-5.037,5.042-5.5,5.045l-5.474,6.708    l2.688-2.646c-1.454,1.907-7.305,7.211-11.492,11.293c1.862-2.882,6.224-6.25,10.369-10.805c2.966-3.354-2.444,1.458,0.424-1.654    c-0.894,0.657-2.831,2.622-3.665,3.713l-1.272,1.087c2.204-3.132,8.288-9.009,11.87-13.389c-0.299,0.398-0.552,0.756-0.608,0.921    c3.245-2.886,6.351-6.006,9.216-9.117c-1.727,1.434-2.253,2.159-3.103,3.116c-0.227-0.002,2.544-2.873,3.484-4.067    c-2.915,2.645-0.792,0.245-2.627,1.928c1.7-1.922,3.199-3.356,5.454-5.514c1.319-0.969-0.705,1.188-0.242,1.184    c2.134-2.41,3.723-2.899,6.783-6.489c-4.52,4.326,0.666-1.666,2.035-3.344l-0.758,0.726c1.133-1.672,2.313-2.873,3.528-3.597    c-1.7,1.921-3.528,3.597-2.739,3.355c1.184-1.207,2.365-2.411,3.636-3.848l-1.033,1.429l5.886-6    c0.699-1.183,1.93-3.096,2.396-4.275c1.645-1.207,3.448-3.374,4.715-4.811l-0.527,0.729c2.827-2.415,8.487-8.42,8.765-9.126    c2.064-1.682-11.877,14.6,1.163,1.163c5.03-5.035,2.452-3.817,5.089-6.926c0,0-0.093,0.231,0.237-0.009    c2.252-2.152,2.214-2.633,3.915-4.554c-1.425,1.217-3.343,3.126-3.861,3.842c0.378-0.948,4.612-4.562,6.075-6.475    c-1.75,2.631,4.425-4.089,2.951-2.163c4.663-4.097,8.998-9.128,10.974-11.754c3.525-2.42,5.14-5.285,10.219-9.854    c-0.758,0.725-2.021,2.153-3.117,3.131c-2.399,3.1,5.183-4.815,1.271-0.263c0.851-0.96-0.122-0.25-0.995,0.733    c-1.584,1.663-2.959,3.346-2.392,3.098l4.241-3.622l-1.288,1.457l6.396-5.537c0.092-0.232-0.556,0.239-0.887,0.482    c7.108-6.731,14.781-14.882,20.901-20.888c0.075-1.063,3.7-4.9,7.844-9.159c1.037-1.063,2.103-2.156,3.156-3.237    c0.526-0.541,1.049-1.079,1.563-1.608c0.198-0.208,0.396-0.415,0.591-0.619l0.335-0.368c0.438-0.477,0.853-0.934,0.937-1.473    c0.109-0.521-0.026-1.009-0.265-1.328c0.349,0.33,0.657,0.674,0.938,0.863c0.287,0.19,0.574,0.219,0.775-0.115    c0.028,0.445,0.041,1.188-0.409,1.924c-0.219,0.367-0.533,0.729-0.869,1.13c-0.174,0.201-0.345,0.39-0.554,0.604    c-0.297,0.304-0.605,0.606-0.926,0.905c-0.555,0.237-3.794,3.117-2.006,0.967c-6.734,6.959,1.359-0.493-0.293,1.895    c1.82-1.869,3.743-3.899,4.469-4.769c1.058-1.006,1.371-2.466,0.875-3.59c-0.444-1.166-1.561-1.729-2.303-2.369l-0.148-0.115    c-0.042-0.031-0.098-0.077-0.19-0.158l-0.48-0.417l-0.954-0.834c-0.629-0.561-1.257-1.12-1.889-1.685l-0.005-0.238l-3.836-3.395    c2.889,3.02,2.183,3.434-1.43-0.57l0.491,0.436c-1.938-2.407-6.733-6.65-10.09-10.08l-2.624-1.976    c-3.361-3.435-2.905-4.184-3.648-5.65c-5.284-5.369-8.854-7.95-12.932-11.439c-1.447-1.974-9.363-10.014-4.817-6.106    c-5.036-4.573-5.476-2.194-12.936-11.215l2.393,1.885c-7.931-7.826-19.672-18.557-23.034-22.453    c3.817,1.995-8.913-10.768-9.42-13.062c0.186,0.594-2.842-2.297-3.382-2.62c-0.544-0.753-1.522-1.935-2.853-2.896    c2.893,3.252-3.087-1.232,3.147,4.281c-3.585-2.36-7.893-5.711-14.374-12.253l0.471-0.275l5.039,5.265    c-0.246-0.795,2.385,1.877,3.6,2.837c-9.375-9.793,2.127,0.382-7.719-9.367c-1.188-0.705-0.475-0.191-3.117-2.642    c1.21,1.185,1.682,1.144-0.243-0.791l-2.151-1.556c-2.8-4.042,6.068,5.259,3.585,1.903c4.076,3.491,10.785,9.887,10.04,8.19    c-6.005-6.351-6.449-4.667-12.693-11.343l-0.485-0.89c-2.41-2.134-3.105-2.173-4.547-3.219c0.003-0.228-0.488-0.892-1.915-2.384    c-4.316-3.357-6.957-5.81-11.018-8.827c9.812,9.028,7.689,8.417,17.761,17.79c-1.679-1.369-8.637-8.1-9.572-8.006l0.464-0.283    c-3.355-2.967-6.707-5.935-10.554-10.028l2.634,2.213c-5.522-5.002-8.182-9.314-12.955-12.845c1.433,1.5,2.635,2.679,3.597,3.528    c-2.875-2.542-6.236-5.978-9.117-8.985l-6.707-5.475c0.238-0.132-3.61-4.003-1.453-2.436c-4.102-4.669-6.725-6.181-9.351-8.622    c-4.095-4.887,4.067,3.713,5.022,3.638c-6.015-6.359-12.729-12.761-16.555-15.917c1.187,1.337,1.735,2.014,1.581,2.041    c-0.069-0.305-2.593-2.768-3.979-4.161l-1.197-0.713l-0.05-0.058l-0.012-0.014l0.127-0.128l0.001-0.001l0.008-0.005l0.021-0.019    c0.016-0.017,0.034-0.041,0.052-0.069c0.002-0.005-0.008,0.02,0,0.006c0.02-0.042-0.008,0.024,0.007-0.013    c0.023-0.064,0.046-0.119,0.073-0.145c0.011-0.01,0.059-0.077,0.078-0.071c0.01,0,0.024-0.002,0.044-0.01l0.036-0.013    c0.028,0.013-0.006-0.056,0.086,0.03c-0.044-0.048-0.058-0.058-0.056-0.049l-0.015-0.002l-0.023-0.01    c-0.018,0-0.008-0.047-0.035-0.032c-0.051,0.037-0.048-0.032-0.099,0.024c-0.056-0.022-0.119,0.125-0.139,0.125    c-0.001,0.031-0.001,0.047-0.006,0.049c0.012,0-0.039-0.001,0.021-0.008c0.052-0.008,0.103-0.025,0.15-0.049    s0.091-0.057,0.13-0.095l0.053-0.063c0.005-0.01,0.062-0.08-0.005-0.018l-0.496,0.406l-0.25,0.198l-0.002,0.001    c-0.327,0.295,0.442-0.4,0.363-0.329v0l0,0.001l0,0.001l0.001,0.002l0.001,0.004l0,0.005c-0.003,0.004-0.019-0.002-0.051-0.015    c0,0.01-0.075-0.02-0.133-0.017c-0.04-0.036,0.003-0.035-0.038-0.083c-0.015-0.038,0.029-0.041,0.008-0.098l-0.002-0.01    l-0.001-0.005l0-0.001c-0.152,0.137,0.341-0.309-0.341,0.308l0.003-0.002l0.013-0.011l0.099-0.087l0.199-0.176l0.401-0.351    l0.045-0.038l-0.013,0.024l-0.032,0.045c-0.022,0.028-0.049,0.053-0.077,0.074c-0.051,0.041-0.139,0.063-0.178,0.066    c0.116-0.066,0.296-0.052,0.398,0.011c0.028,0.01,0.068,0.008,0.078,0.056c0.011,0.013,0.026,0.02,0.047,0.022    c-0.008-0.021,0.055,0.042,0.114,0.103l0.167,0.168c0.445,0.444,0.869,0.866,1.264,1.259c0.793,0.781,1.482,1.433,2.02,1.88    c-1.017-0.957-1.892-1.811-2.666-2.59c-0.192-0.196-0.379-0.386-0.562-0.572l-0.268-0.276c-0.04-0.03-0.039-0.016-0.055-0.031    c-0.025-0.012-0.027-0.059-0.045-0.081c-0.028-0.003-0.047-0.02-0.062-0.05c-0.007-0.047-0.043-0.032-0.064-0.051    c-0.025-0.007-0.039-0.064-0.069-0.067c-0.057,0.012-0.111-0.096-0.175-0.075c-0.031-0.007-0.064-0.025-0.102-0.052    c-0.03,0.01-0.062,0.01-0.098,0.001c-0.158-0.018,0.054-0.056,0.054-0.195l0.006-0.051c0.004-0.021-0.07,0.043-0.101,0.061    l-0.249,0.174l-0.251,0.175l-0.126,0.089l-0.064,0.045l-0.032,0.022l-0.008,0.005c0.59-0.534,0.163-0.147,0.294-0.266l0,0    l-0.002,0.003c-0.027,0.034-0.062,0.063-0.107,0.086c-0.053,0.019-0.101,0.046-0.115,0.093c-0.188,0.118-0.231,0.366-0.273,0.631    c-0.034,0.121,0.046,0.327,0.038,0.382c-0.001-0.021-0.015-0.039-0.04-0.049c-0.012-0.005-0.026-0.009-0.043-0.009l-0.027,0    c-0.013-0.002,0.04,0.053,0.057,0.077c0.103,0.126,0.206,0.253,0.312,0.383l0.16,0.195l0.081,0.099l0.021,0.025    c-0.11-0.121,0.253,0.28-0.245-0.27l0.005,0.005l0.012,0.012l0.046,0.045c0.978,0.972,2.092,2.049,3.381,3.261    c0.007,0.239-1.914-1.23,0.012,0.701c4.557,4.378,1.667,0.668,3.331,1.794c-1.795-1.645-3.056-2.903-4.079-4.04    c-0.512-0.568-0.964-1.105-1.394-1.644l-0.633-0.814l-0.001-0.002c-0.282-0.312,0.383,0.423,0.314,0.347l-0.002-0.003    l-0.004-0.007l-0.008-0.014l-0.017-0.028l-0.034-0.055l-0.067-0.111l-0.134-0.224c-0.079-0.139-0.205-0.324-0.246-0.432    c-0.049-0.045,0.246,0.195,0.494,0.392c0.065,0.052,0.13,0.104,0.19,0.152l0.088,0.07l0.021,0.016l0.01,0.008    c0.074,0.082-0.644-0.712-0.339-0.376l0,0l0.001,0l0.001,0.001l0.002,0.002l0.005,0.003l0.041,0.026    c0.104,0.067,0.174,0.112,0.174,0.112c0.037,0.241,2.191,2.407,2.729,3.142l0.957,0.155c-0.701,0.187,2.417,3.98,5.299,6.53    c-2.423-3.066-1.698-2.308-1.94-3.56c4.298,3.34,3.839,4.779,8.626,8.552c-0.463-0.178-4.307-3.809-1.187-0.47    c2.654,2.692,2.643,1.99,4.546,3.673c-2.388-1.65-2.145-0.857-4.771-2.606c-4.796-4.703-1.911-1.92-6.714-6.401l3.617,4.242    c-4.083-3.964-3.349-2.503-3.822-2.693c6.496,7.248,5.74,4.617,10.064,9.135c2.385,1.878-4.088-4.195-0.488-1.126    c4.08,4.188,1.184,0.701,5.985,5.181l-0.947-0.607c1.199,1.638,2.872,2.77,4.55,4.374c1.917,1.693-0.76-3.328,6.688,4.069    c-0.466-0.261-0.666-0.329-0.708-0.286l-10.345-4.136c7.528,7.512,16.107,16.265,24.608,25.181    c1.444,2.658-6.716-5.715-6.457-4.909l-3.848-4.097c0.48-0.034,8.401,8.243,5.269,4.201c-7.199-6.829-10.085-10.307-17.27-16.431    c1.459,2.676,8.872,8.656,12.73,13.455c-1.778-1.857-3.379-3.325-4.956-4.727c3.985,4.144,8.25,8.579,12.783,13.294l1.186,0.892    c-3.048-3.185-5.153-5.393-5.409-5.693c4.08,4.186,7.901,7.335,8.621,7.164l-0.718-0.75l1.632,1.354    C219.821,137.856,220.761,138.854,221.697,139.847z M184.764,408.876c0.208-0.294,0.356-0.541,0.44-0.749    C185.117,408.343,185.329,408.216,184.764,408.876z M186.274,89.778c-2.714-2.797-5.44-5.606-8.14-8.388    c-1.349-1.392-2.691-2.777-4.021-4.15l-0.997-1.026c-0.138-0.157-0.392-0.372-0.629-0.57c-0.245-0.188-0.461-0.418-0.738-0.56    c-1.051-0.677-2.29-0.98-3.515-1.012c1.103,0.108,2.168,0.389,3.025,0.972c0.455,0.246,0.82,0.593,1.167,0.938    c0.394,0.356,0.546,0.62,0.815,0.922c0.959,1.174,1.844,2.257,2.621,3.208c1.539,1.911,2.612,3.313,2.915,3.891    s-0.163,0.33-1.7-1.061c-0.769-0.695-1.806-1.676-3.148-2.982c-0.668-0.656-1.416-1.391-2.248-2.208    c-0.209-0.225-0.417-0.376-0.626-0.546l-0.319-0.259l-0.374-0.192l-0.38-0.202l-0.423-0.124c-0.143-0.039-0.285-0.093-0.433-0.124    c-0.152-0.014-0.305-0.028-0.46-0.042c-0.005-0.063-1.29,0.119-1.274,0.164c0.627-0.071,1.396-0.108,2.168,0.189    c0.402,0.091,0.759,0.347,1.138,0.565c0.169,0.142,0.342,0.287,0.517,0.434c0.18,0.153,0.381,0.379,0.576,0.569    c1.573,1.591,3.331,3.323,5.053,4.982c1.524,1.213,4.781,3.741,7.657,5.941c1.443,1.092,2.787,2.109,3.765,2.849    c0.983,0.731,1.608,1.174,1.609,1.125c-0.724-1.215-2.405-2.359-4.092-4.197L186.274,89.778z M188.72,95.169    c3.026,3.222,2.509,2.316,3.169,2.625c-1.122-1.077-2.242-2.153-3.349-3.216C188.912,95.038,189.054,95.305,188.72,95.169z     M191.878,97.432c-0.347-0.355-0.638-0.663-0.771-0.843L191.878,97.432z M194.204,113.733c-0.144-0.134-0.195-0.183-0.332-0.31    c0.725,0.751,1.451,1.504,2.208,2.29C195.81,115.385,195.261,114.793,194.204,113.733z M188.294,106.963l-1.062-0.42    c0.676,0.7,1.365,1.414,2.071,2.145C189.211,108.305,189.09,107.931,188.294,106.963z M168.971,85.528    c-0.417-0.225-1.001-0.661-1.652-1.187c-0.322-0.267-0.666-0.551-1.015-0.84l-0.261-0.22l-0.131-0.111l-0.065-0.055l-0.002-0.001    c-0.091-0.101,0.122,0.135,0.099,0.11l-0.004-0.004l-0.007-0.007l-0.015-0.016l-0.03-0.031l-0.474-0.49    c-0.197-0.182-0.226-0.28-0.296-0.382c-0.065-0.108-0.155-0.191-0.225-0.312c-0.098-0.278-0.281-0.523-0.336-0.768    c-0.064-0.241-0.157-0.451-0.221-0.616c-0.043-0.164-0.102-0.28-0.176-0.326c-0.062-0.17-0.145,0.008-0.213,0.403    c0.004,0.2,0.01,0.449,0.016,0.728c0.034,0.277,0.135,0.573,0.203,0.888c0.069,0.157,0.155,0.301,0.229,0.457    c0.082,0.153,0.125,0.311,0.279,0.473l0.392,0.489l0.099,0.124c-0.035-0.036,0.054,0.055,0.075,0.077l0.224,0.228    c0.598,0.611,1.214,1.241,1.849,1.89c0.109-0.021,0.425,0.174,0.909,0.542c-1.211-1.323-1.947-2.279-1.161-2.04    c2.662,3.854,3.343,2.495,6.711,6.169C175.206,91.506,170.164,86.469,168.971,85.528z M271.053,335.184    c-0.139,0.062-0.583,0.305-1.189,0.664l2.26-2.7c4.521-4.328,8.706-7.233,12.139-11.766c2.002-1.727,3.292-2.432,4.486-3.146    c-0.931,0.896-1.807,1.726-2.556,2.399C275.832,332.608,279.522,325.609,271.053,335.184z M322.709,285.095    c-0.429,0.483-0.521,0.72-0.521,0.72c9.07-10.702,16.974-19.08,22.336-24.378c-1.357,0.71-6.39,5.24-8.794,7.377l1.644-2.381    l1.546-0.967l3.158-3.828c-1.226,0.729-3.994,3.602-6.07,5.296c-0.094,0.234-5.701,6.702-7.161,8.617l5.079-4.569    c-1.406,1.2-7.72,7.685-10.163,10.316c0.135,0.235,4.793-3.854,4.942-4.806c0.794-0.246-4.244,4.798-0.762,1.904    c-3.485,4.07-9.74,9.837-12.666,12.489l-0.933,0.012c-3.239,2.881-1.512,2.623-5.413,5.991c4.379-4.559-1.262,0.25,2.259-3.34    c-1.309,0.962-0.511-0.464-4.038,3.133c-2.354,3.576-4.137,3.372-6.401,6.714c-2.063,1.683,1.647-2.383-2.119,1.221    c-3.906,4.548-3.433,4.533-3.25,5.24c4.077-3.828,3.863-5.019,7.204-8.144l-5.669,7.19c1.293-1.077,2.181-1.943,2.886-2.71    c-1.247,1.337-2.232,2.547-3.017,3.642c-0.454,0.617-0.872,1.186-1.259,1.71c3.648-3.64,6.896-6.865,7.657-7.248l-0.287,0.718    c1.487-1.093,3.436-3.351,4.247-4.478c3.239-3.286,6.198-6.846,7.19-7.279l-1.041,1.436    C317.244,290.619,317.665,290.144,322.709,285.095z M247.299,150.514c1.641,3.22,3.624,6.598,15.105,17.804l-0.947-0.838    c5.222,6.212,11.803,10.491,18.207,17.997c-3.673-3.077-3.464-2.922-7.871-5.968l3.845,3.397    c-1.434-0.573,2.401,2.816,5.038,5.494l-2.856-1.833c-1.448-1.742-5.529-5.93-5.524-5.691c0.962,0.849-4.813-6.104-8.419-9.413    c0.01,0.703,7.449,7.862,3.624,5.168c3.11,2.635,3.121,3.337,6.245,6.218c-3.117-2.642-1.185-0.241-3.581-2.132l5.041,4.806    c0.014,0.244-7.427-6.915-3.818-2.454c2.154,1.792,7.194,7.287,7.661,7.008l0.007,0.236c3.61,3.771,2.151,1.095,6.471,5.84    c0.24-0.134-0.494-1.128-2.156-2.713c-1.455-1.289-1.922-1.243-4.8-4.017c-0.976-1.559,3.372,3.445,1.903,0.99    c-0.729-1.22-7.673-7.249-5.052-5.736l3.604,3.764c0.468-0.279,3.114,2.41,3.341,2.034c2.39,2.115,4.095,4.662,6.721,6.637    c1.196,0.714-0.022-1.403,3.588,2.599c2.422,3.527,11.294,12.183,14.655,15.387l3.11,2.634c-0.015-0.473-5.52-5.458-3.378-3.911    l4.57,4.39l-0.489-0.202c1.452,1.516,3.125,2.88,4.562,4.153c-1.665-1.126-4.786-4.463-4.533-3.433    c2.026,2.179,2.203,2.645,4.213,4.505c-0.45-0.395-0.852-0.72-0.853-0.612c4.089,4.426,4.546,3.676,5.739,4.617    c4.787,3.774-3.845-4.784-2.896-4.637l12.711,12.283c-1.193-0.941-2.394-1.89-2.15-1.328c2.886,3.245-0.232,0.371,4.09,4.656    c0.226-0.838,5.751,5.087,9.098,7.82c1.202,1.638,1.451,1.974-1.661-1.125c-0.005,0.686,4.35,4.775,5.729,6.216    c0.451,0.366,1.046,0.892,1.657,1.438c0.272,0.299,0.588,0.583,0.802,0.909c0.195,0.337,0.439,0.635,0.534,0.949    c-0.153-0.829-0.22-1.077,0.142-0.717c0.078,0.095,0.206,0.219,0.302,0.407c0.09,0.19,0.193,0.427,0.31,0.712    c0.121,0.284,0.142,0.64,0.222,1.036c0.032,0.396,0.022,0.856-0.053,1.35l0.035,0.24c0.264-0.798,0.29-1.717,0.142-2.637    c-0.183-0.918-0.594-1.823-1.219-2.595c-0.657-0.752-1.373-1.5-2.075-2.269c-0.659-0.699-1.317-1.397-1.964-2.083    c-2.551-2.674-4.952-5.087-6.513-6.294l0.954,0.611c-4.811-5.408-11.738-10.498-13.442-13.506c0.476-0.041-0.967-1.085-0.505-1.37    l-4.054-3.47l0.952,0.613l-6.483-6.315l0.238,0.1c-3.389-2.693-6.044-4.803-8.166-6.49c-0.169,0.156-0.021,0.404-1.155-0.491    c-1.098-0.937-1.882-1.696-2.549-2.405c-0.006-0.005-0.006-0.005-0.007-0.003l0.002-0.002c-1.522-1.618-2.335-2.897-4.173-4.926    l5.989,5.91c0.762,0.208,0.542-0.584-2.18-3.693c1.202,1.182,1.916,1.465,0.473-0.042c-0.234-0.09-4.075-3.723-2.871-2.079    c-5.754-5.552-14.18-15.427-23.286-23.484c6.481,5.85-4.571-5.312,2.387,1.419c-4.336-5.219-4.547-3.676-9.348-8.615    c-0.257-0.574,2.631,2.672,4.063,3.479c-7.921-8.275-14.377-12.949-22.077-20.917l0.01-0.679    C250.758,153.774,249.062,152.176,247.299,150.514z M231.373,135.447c-1.546-1.469-3.115-2.958-4.709-4.472    c0.148,0.155,0.285,0.299,0.44,0.461l-4.808-4.252c2.649,2.917,4.104,5.13,0.032,1.411c0.47,0.185-0.494-1.128,0.944,0.143    c-2.404-2.817-7.931-8.745-6.958-6.731c5.508,4.524,0.506,1.832,4.813,5.409c-2.455-1.776-4.397-4.024-6.546-5.871    c2.363,1.796,0.159-1.128-2.83-4.387c-1.443-1.276-5.043-5.036-7.44-7.158c0.487,1.124-1.662-0.662,1.939,3.1    c-1.434-1.267-3.591-3.291-5.769-5.796c0.983,0.874,2.646,2.458,2.649,2.23c-1.219-1.804-3.001-3.56-3.853-4.662    c-0.796-0.762-1.599-1.53-2.38-2.278c0.2,0.256,0.362,0.49,0.457,0.676l-2.869-2.306c3.596,3.296,1.446,1.74,1.215,1.882    c0.465-0.28-2.17-2.267-3.362-3.434l2.169,2.956c-1.436-1.041-4.089-4.657-3.832-3.621c5.281,5.593,7.438,7.616,12.472,12.416    l-1.69-2.302c5.764,5.331,2.896,3.946,9.136,10.156c2.867,2.308,9.38,9.341,10.068,8.91c-0.951-0.61,3.378,4.374,5.765,6.253    c2.869,1.846,10.068,8.906,8.142,6.513c-1.92-1.933-4.794-4.244-6.01-6.125l3.844,3.63l-2.173-2.73    C231.396,136.836,231.546,136.44,231.373,135.447z M174.682,101.525c0.039,0.043,0.09,0.099,0.137,0.151    c-0.055-0.056-0.107-0.11-0.159-0.162L174.682,101.525z" fill="#202020"/><path d="M216.898,391.661c-0.948,1.201-3.625,3.838-2.831,3.592C213.701,395.014,218.768,390.459,216.898,391.661z    " fill="#202020"/><path d="M213.426,394.543c-0.115,0.26,0.13,0.244-1.051,1.447l3.206-3.359L213.426,394.543z" fill="#202020"/><path d="M208.036,395.814c-1.468,1.918-2.415,3.117-5.092,5.754c-1.733,0.263,4.145-4.555,4.664-6.445    c-4.939,4.801-5.792,6.938-9.736,11.007C200.164,404.451,208.448,396.519,208.036,395.814z" fill="#202020"/><polygon fill="#202020" points="209.271,392.722 206.728,395.596 207.038,395.373 209.583,392.497   "/><path d="M274.318,340.446c0.475-0.015,1.936-1.929,2.785-2.889C276.353,338.278,275.262,339.248,274.318,340.446z" fill="#202020"/><path d="M240.902,343.218L220.463,364.1C226.344,358.092,231.774,352.545,240.902,343.218z" fill="#202020"/><path d="M341.376,270.385c-5.331,5.764-7.399,8.624-12.951,14.377c7.896-6.97,9.094-10.539,15.809-16.306    L341.376,270.385z" fill="#202020"/><path d="M341.251,274.174c-1.352,0.487,3.773-4.787,2.651-4.299c-3.633,3.845-1.329,2.153-4.76,5.509    L341.251,274.174z" fill="#202020"/><polygon fill="#202020" points="308.961,292.162 310.418,290.254 309.146,291.69   "/><polygon fill="#202020" points="341.733,239.074 342.444,239.59 339.799,236.671   "/><path d="M343.156,240.103l-0.713-0.514L343.156,240.103z" fill="#202020"/><polygon fill="#202020" points="310.195,289.072 307.602,291.479 306.565,292.915   "/><path d="M334.582,269.326l-2.098,2.375C332.902,271.23,336.139,268.349,334.582,269.326z" fill="#202020"/><polygon fill="#202020" points="324.929,221.903 322.042,219.347 322.277,219.669 325.155,222.215   "/><path d="M343.171,253.646c0.199,0.532-0.425-0.046-0.905-0.492c-0.186-0.175-0.361-0.341-0.5-0.472    c-0.176-0.164-0.308-0.28-0.365-0.314c-0.059-0.034-0.042,0.014,0.079,0.179c0.063,0.081,0.149,0.193,0.263,0.34    c0.06,0.073,0.125,0.154,0.198,0.244c0.073,0.09,0.078,0.112,0.126,0.178C343.49,254.63,343.207,254,343.171,253.646z" fill="#202020"/><path d="M313.275,219.24c-0.367-0.367-0.766-0.742-1.175-1.078C312.563,218.587,312.951,218.943,313.275,219.24z" fill="#202020"/><path d="M313.275,219.24c1.186,1.185,2.243,2.497,3.151,3.214C315.1,220.826,314.505,220.344,313.275,219.24z" fill="#202020"/><path d="M299.62,205.74l1.051,1.098c-1.262-0.934-0.717-0.438,0.395,0.411c1.15,1.127,1.191,0.958,1.398,1.021    c0.271,0.186,0.538,0.371,0.83,0.571c-0.396-0.306-0.752-0.581-1.055-0.813C300.479,206.261,299.386,205.201,299.62,205.74z" fill="#202020"/><path d="M254.788,149.7c3.845,4.092,4.812,5.179,4.338,5.221c3.685,3.849,3.545,2.82,5.92,4.989    C260.734,155.698,259.981,154.707,254.788,149.7z" fill="#202020"/><path d="M265.046,159.91c0.484,0.471,0.946,0.921,1.509,1.467C265.942,160.75,265.472,160.301,265.046,159.91z" fill="#202020"/><polygon fill="#202020" points="312.666,224.432 309.805,222.361 310.766,223.211   "/><path d="M249.029,143.68c0.72,0.752,1.911,1.92,2.402,2.588C251.901,146.221,248.31,142.93,249.029,143.68z" fill="#202020"/><path d="M259.273,164.048c0.245,0.561,2.879,3.006,3.852,4.1C261.675,166.632,260.943,164.948,259.273,164.048z" fill="#202020"/><path d="M236.578,133.36c0.72,0.752,1.678,2.058,0.974,1.781C238.748,136.084,240.651,137.075,236.578,133.36z" fill="#202020"/><polygon fill="#202020" points="252.066,156.749 252.545,157.403 255.427,159.953   "/><path d="M257.941,170.248c3.362,2.746-4.102-5.588,1.419-0.589c-6.463-7.108,0.084,0.957-4.871-4.099    C257.316,168.596,258.363,170.422,257.941,170.248z" fill="#202020"/><path d="M254.489,165.56c-0.41-0.442-0.862-0.913-1.362-1.415C253.671,164.711,254.109,165.166,254.489,165.56z" fill="#202020"/><path d="M213.45,120.623c0.477,0.412,0.814,0.679,1.131,0.922C214.206,121.222,213.842,120.92,213.45,120.623z" fill="#202020"/><path d="M238.247,149.828l5.041,4.116c-3.366-2.75-11.041-10.462-11.021-9.522c2.398,2.584,5.518,5.46,6.948,6.492    L238.247,149.828z" fill="#202020"/><path d="M194.051,88.929l2.161,1.796l-2.416-2.524C194.433,88.978,192.816,88.037,194.051,88.929z" fill="#202020"/><path d="M193.327,87.714l0.468,0.487C193.701,88.085,193.554,87.929,193.327,87.714z" fill="#202020"/><path d="M222.332,129.059c1.447,1.511,2.643,2.682,4.074,3.949C225.933,132.362,222.329,128.595,222.332,129.059z" fill="#202020"/><polygon fill="#202020" points="179.453,75.671 182.797,78.857 179.2,75.329   "/><polygon fill="#202020" points="160.546,90.531 161.022,91.181 163.894,93.723 163.409,93.064   "/><path d="M175.864,88.641c2.164,2.262,4.306,3.577,3.814,2.911l-4.309-4.273c0.729,1.453,1.201,1.18,3.597,3.759    L175.864,88.641z" fill="#202020"/><path d="M274.295,202.927c-1.201-0.717-5.755-5.551-5.771-6.026c0.73,0.531,3.37,2.98,1.918,1.235l-4.308-3.12    c-4.569-5.31,4.535,2.974,7.185,5.204c-4.955-5.109-6.838-6.21-12.188-11.566c1.525,1.632,2.376,2.778,3.082,3.74    c-0.235,0.6-5.039-4.574-8.638-8.106c2.089,2.452,0.623,1.292-1.195-0.198c-0.311-0.285-0.532-0.458-0.701-0.571    c-0.212-0.172-0.413-0.335-0.62-0.503l0.428,0.427c-0.077,0.017-0.04,0.167,0.191,0.553c3.113,2.871,5.053,5.508,6.974,7.439    c-1.224-2.583,6.717,6.402,9.348,8.615l2.863,2.729l1.047,1.044c0.136,0.285-0.256,0.081-1.984-1.38    c1.465,1.197,5.857,5.684,5.665,5.055l10.141,10.121c0.288,0.343,0.568,0.693,0.753,0.976c0.395,0.308,0.488,0.332,0.477,0.251    c12.412,12.384,24.824,24.769,37.208,37.153l-0.146,0.178c0.088-0.057,0.19-0.115,0.307-0.178c-0.03-0.168-0.069-0.4-0.252-0.691    c0.561,0.11,0.465-0.027,0.229-0.296l-0.084-0.098c-0.04-0.044-0.006-0.017-0.211-0.228c-0.298-0.313-0.576-0.611-0.795-0.862    c-0.437-0.501-0.635-0.814-0.281-0.673c0.417,0.34,0.866,0.737,1.323,1.163c0.303,0.288,0.271,0.246,0.353,0.32l0.177,0.173    c0.227,0.238,0.399,0.488,0.473,0.665c0.235,0.02,0.319-0.099,0.369-0.263c0.055-0.159,0.072-0.366,0.291-0.405    c-0.199-0.267-0.411-0.505-0.618-0.708c-0.056-0.052-0.81-0.771-1.26-1.165c-1.004-0.892-1.901-1.591-2.798-2.284    c-1.793-1.385-3.586-2.74-6.229-5.54c0.475-0.042,2.382,1.414-1.215-2.113l0.961,0.85c-5.993-5.416-3.86-5.028-8.159-7.911    l0.467-0.278c-2.868-2.306-7.904-7.338-10.793-10.125l0.241,0.098c-8.385-7.532-4.558-4.377-13.674-13.135l4.548,3.678    c-2.903-3.263-4.07-3.485-6.235-5.747c0.23,0.086-0.01-0.699,2.148,1.323l-11.507-10.18    C270.93,199.259,274.051,202.365,274.295,202.927z" fill="#202020"/><path d="M261.131,188.654c-0.554-0.594-1.197-1.254-1.981-2.009C259.887,187.393,260.523,188.037,261.131,188.654z    " fill="#202020"/><path d="M325.709,256.498l0.313-0.32C325.885,256.27,325.787,256.354,325.709,256.498z" fill="#202020"/><path d="M244.775,173.926c1.687,2.073-1.678-1.138-2.149-1.323l6.741,6.728c0.113-0.174,0.941,0.332,0.937,0.065    L244.775,173.926z" fill="#202020"/><path d="M251.046,181.551c0.328,0.128,1.13,0.751,2.014,1.465l-3.692-3.685    C249.282,179.461,249.598,179.972,251.046,181.551z" fill="#202020"/><polygon fill="#202020" points="257.998,173.172 259.203,174.351 261.117,176.044   "/><path d="M276.012,192.449c-1.206-1.642-4.073-4.178-5.031-5.026C274.101,190.529,272.668,189.263,276.012,192.449z    " fill="#202020"/><polygon fill="#202020" points="274.498,186.268 277.622,189.146 277.385,188.823   "/><path d="M305.12,280.022c-0.484,0.5-0.954,0.985-1.442,1.49C304.351,280.843,304.779,280.393,305.12,280.022z" fill="#202020"/><path d="M327.84,256.591c-1.032,0.719-1.061,0.57-0.959,0.313c0.118-0.271,0.423-0.708,0.392-0.904    c-0.286-0.136-0.498-0.156-0.671-0.062c0.033,0.021,0.067,0.042,0.088,0.062c-0.057,0.167-0.146,0.366-0.27,0.598    c0,0.001-0.152-0.134-0.152-0.134s-0.164,0.187-0.327,0.374c-1.052,1.075-2.103,2.15-2.103,2.15    c1.221-0.729,1.969-1.446,2.015-0.976c-6.442,6.241-2.306,1.693-7.284,6.02l-7.042,7.136l0.496-0.65    c-0.591,0.603-0.822,0.898-0.985,1.146l-23.729,24.051c-4.142,4.551,2.868-1.939,0.043,1.646    c5.036-5.039,12.798-12.25,12.71-13.193c-0.098,0.241-0.289,0.716,0.793-0.244l2.489-3.338l-2.913,2.644    c2.507-3.353,12.062-12.72,14.034-14.168c-5.235,5.524-2.026,3.334-9.798,10.552c0.467-0.206,2.069-1.348,0.453,0.411    c4.315-4.466,8.5-8.607,12.688-12.825c2.094-2.109,4.188-4.237,6.301-6.434c0.526-0.551,1.056-1.104,1.588-1.661l0.797-0.842    l0.385-0.41l0.118-0.145C327.308,257.322,327.596,256.945,327.84,256.591z" fill="#202020"/><path d="M242.673,342.255l0.023-0.116C242.562,342.322,242.529,342.392,242.673,342.255z" fill="#202020"/><path d="M245.684,339.371l3.775-4.785l-6.633,6.714l-0.13,0.839c0.5-0.68,2.66-3.198,3.706-3.967L245.684,339.371z    " fill="#202020"/><path d="M254.124,329.31c-3.296,3.597-2.692,3.827-0.622,2.137c-2.971,3.358-2.118,1.222-3.857,3.842    c0.373,0.229,4.096-3.849,4.938-4.8L254.124,329.31z" fill="#202020"/><polygon fill="#202020" points="279.773,304.1 278.976,305.243 281.41,302.901   "/><path d="M278.976,305.243l-2.416,2.323c0.292-0.035,0.579-0.072,1.054-0.371L278.976,305.243z" fill="#202020"/><path d="M270.22,313.666c-1.034,0.972-2.168,2.059-3.53,3.397L270.22,313.666z" fill="#202020"/><path d="M273.037,311.061l-0.135,0.025l-2.683,2.579C271.228,312.734,272.131,311.898,273.037,311.061z" fill="#202020"/><path d="M276.56,307.566c-0.678,0.093-1.436,0.237-4.781,3.745l1.124-0.225L276.56,307.566z" fill="#202020"/><polygon fill="#202020" points="295.884,208.534 298.76,211.079 298.518,210.747 295.644,208.204   "/><path d="M311.256,224.44c0.722,0.619,1.283,1.072,1.8,1.479C312.319,225.245,311.708,224.733,311.256,224.44z" fill="#202020"/><path d="M324.878,234.07c2.894,3.482-4.787-4.009,0.986,2.025c0.247,0.794-2.873-1.621-5.518-4.537    c0.479-0.037,2.874,2.543,1.428,0.572c-2.145-1.548-2.644-2.453-2.388-1.422c-3.349-2.864-3.97-2.934-6.331-4.789    c3.926,3.583,11.411,11.866,16.674,16.132c3.094,2.16,2.138-0.07,2.822-0.733C332.315,240.764,325.58,233.881,324.878,234.07z" fill="#202020"/><path d="M320.534,228.381c-1.442-1.509-1.921-1.933-2.882-2.782C317.666,226.074,319.331,227.199,320.534,228.381z    " fill="#202020"/><path d="M325.246,268.757c-0.186,0.378-2.736,3.166-1.996,2.758l3.926-4.168    C326.21,268.28,325.758,268.498,325.246,268.757z" fill="#202020"/><path d="M328.899,265.52l-1.723,1.826C327.628,266.911,328.163,266.349,328.899,265.52z" fill="#202020"/><path d="M324.994,268.889c0.084-0.044,0.16-0.084,0.252-0.133C325.283,268.679,325.252,268.67,324.994,268.889z" fill="#202020"/><path d="M260.232,323.318c-0.128-0.242-1.821,1.672-2.671,2.632C258.312,325.229,259.406,324.257,260.232,323.318z    " fill="#202020"/><path d="M193.07,391.935l-1.74,1.446C191.981,392.906,192.313,392.661,193.07,391.935z" fill="#202020"/><path d="M173.57,421.54c-0.01,0.082-0.098,0.23-0.228,0.417C173.477,421.775,173.557,421.634,173.57,421.54z" fill="#202020"/><path d="M173.342,421.957c-0.935,1.242-4.535,4.364-5.509,5.807l0.082-0.225c0,0-0.528,0.597-1.055,1.193    c-0.132,0.149-0.264,0.299-0.387,0.438c-0.058,0.067-0.131,0.144-0.169,0.196c-0.025,0.043-0.049,0.084-0.07,0.121    c-0.092,0.142-0.153,0.235-0.153,0.235c0.112-0.217,0.955-1.039,1.643-1.737c0.724-0.736,1.505-1.533,2.26-2.301    C171.481,424.139,172.844,422.679,173.342,421.957z" fill="#202020"/></g></g></svg>